<?xml version="1.0" encoding="UTF-8"?>
<svg width="505.77" height="649.04" version="1.0" xmlns="http://www.w3.org/2000/svg">
 <path d="m263.66 442.54 55.412-53.455 0.75 27.078 95.5-0.64448 8.2858-2.8835c4.5572-1.5859 10.619-4.5135 13.471-6.5057 17.289-12.079 21.421-34.2 10.756-57.589-1.5047-3.3-17.417-31.409-35.36-62.464-17.943-31.055-32.293-56.779-31.888-57.165 1.965-1.8705 42.275-24.611 42.604-24.035 0.20833 0.36478 14.781 25.638 32.384 56.163 35.942 62.327 38.983 68.049 43.763 82.349 18.51 55.368-3.7081 100.63-56.986 116.1-16.197 4.7024-17.893 4.8326-71.029 5.4534l-51 0.59583-1 31zm-184.46 20.554c-34.779-6.1236-60.062-22.802-71.787-47.354-5.0279-10.528-6.6723-17.69-7.2787-31.7-0.63315-14.627 0.91468-24.795 6.1866-40.639 4.4515-13.378 9.8233-23.85 30.915-60.268 9.6855-16.723 17.493-30.48 17.349-30.57l-23.077-14.252c3.1172-1.0391 73.828-21.074 73.891-20.936 1.0273 2.2604 18.514 73.908 18.132 74.291l-26.444-11.972c-3.0041 4.1083-37.557 64.761-39.86 69.968-3.8975 8.8129-5.66 17.869-5.1331 26.376 1.1326 18.289 10.998 30.215 30.486 36.854l7.7439 2.6382 141.5 0.59513v48.912l-71.25-0.0818c-63.667-0.0731-72.328-0.27155-81.375-1.8645zm25.273-294.07c-0.90638-0.84161 60.288-107.66 68.452-119.49 8.9446-12.958 22.542-26.962 33.64-34.647 6.7866-4.6994 20.11-10.668 28.669-12.843 21.563-5.4797 46.601 0.1713 66.666 15.046 9.8483 7.3009 24.492 23.071 32.003 34.464 3.6182 5.4887 14.836 24.379 24.928 41.979s18.476 32.168 18.629 32.374l23.853-12.719c0.36716 0.36715-18.084 73.773-18.698 74.387-0.3688 0.3688-72.806-20.225-73.468-20.886l24.677-15.922c0-1.4102-37.991-66.84-42.591-73.352-11.796-16.7-29.213-25.451-44.619-22.42-12.233 2.4067-24.202 10.758-32.398 22.606-2.1407 3.0944-18.081 30.187-35.423 60.206-17.342 30.019-31.967 54.718-32.5 54.887-14.227-7.2156-28.432-14.941-41.821-23.673zm13.352 480.01v-104.11h45.106c12.273 1e-4 21.612 2.774 28.017 8.3216 6.4053 5.5478 9.608 13.633 9.608 24.256-9e-5 11.237-3.2028 19.771-9.608 25.602-6.4054 5.831-15.745 8.7465-28.017 8.7465l-22.59 0.14165v37.04zm22.517-55.099h18.776c6.3075 5e-5 11.038-1.3456 14.192-4.0368 3.1537-2.6912 4.7306-6.7516 4.7307-12.181-8e-5 -4.9574-1.577-8.6756-4.7307-11.154-3.1539-2.4787-7.8845-3.718-14.192-3.7181h-18.776zm77.818 55.099v-104.11h79.358v18.484h-56.841v22.096h52.734v17.918h-52.734v27.125h59.335v18.484zm123.58 0v-85.624h-32.565v-18.484h87.646v18.484h-32.565v85.624zm-102.92-419h-38v-22.638l9.3669-1.6597c11.372-2.0149 17.178-4.3935 22.531-9.2294 5.1076-4.6144 7.8953-9.1052 10.124-16.31l1.7524-5.6636h26.725l0.51005 191.5h-33.01z"/>
</svg>
